# xmcd CD Database Entry
#
# Track frame offsets:
# 150
# 14744
# 23447
# 35861
# 51983
# 65157
# 81560
# 92667
# 106565
# 121921
# 140711
# 150397
# 165904
# 180690
# 191451
# 206234
#
# Disc length: 2781 seconds
#
# Revision: 1
# Processed by: cddbd v1.4PL0 Copyright (c) Steve Scherf et al.
# Submitted via: tcd 2.0b
#
DISCID=da0adb10
DTITLE=Chuchín Ibañez y Los Chihuahua - Millones y Chamacas
DYEAR=1900
DGENRE=
TTITLE0=Mariatxi
TTITLE1=El Huérfano
TTITLE2=El Caporal
TTITLE3=La Feria de las Flores
TTITLE4=Los Gavilanes
TTITLE5=Soldado Raso
TTITLE6=Virgencita
TTITLE7=La Banda del Carro Rojo
TTITLE8=Caballo Prieto Azabache
TTITLE9=Ella Era El
TTITLE10=Mujeres Ingratas
TTITLE11=El Preso Nº 9
TTITLE12=El Coyote
TTITLE13=La Ley de la Vida
TTITLE14=Tú y las Nubes
TTITLE15=Las Montañas de Louisiana
EXTD=
EXTT0=
EXTT1=
EXTT2=
EXTT3=
EXTT4=
EXTT5=
EXTT6=
EXTT7=
EXTT8=
EXTT9=
EXTT10=
EXTT11=
EXTT12=
EXTT13=
EXTT14=
EXTT15=
PLAYORDER=
